<?xml version="1.0" encoding="utf-8"?>
<svg version="1.1" xmlns:xlink="http://www.w3.org/1999/xlink" width="85px" height="22px" xmlns="http://www.w3.org/2000/svg">
  <defs>
    <mask fill="white" id="clip5">
      <path d="M 0 17  L 0 5  C 0 2.19999999999999  1.43846153846157 0  3.26923076923077 0  L 81.7307692307692 0  C 83.5615384615384 0  85 2.19999999999999  85 5  L 85 17  C 85 19.8  83.5615384615384 22  81.7307692307692 22  L 37.5631616090331 22  L 3.26923076923077 22  C 1.43846153846157 22  0 19.8  0 17  Z " fill-rule="evenodd" />
    </mask>
  </defs>
  <g transform="matrix(1 0 0 1 -573 -296 )">
    <path d="M 0 17  L 0 5  C 0 2.19999999999999  1.43846153846157 0  3.26923076923077 0  L 81.7307692307692 0  C 83.5615384615384 0  85 2.19999999999999  85 5  L 85 17  C 85 19.8  83.5615384615384 22  81.7307692307692 22  L 37.5631616090331 22  L 3.26923076923077 22  C 1.43846153846157 22  0 19.8  0 17  Z " fill-rule="nonzero" fill="#81d3f8" stroke="none" transform="matrix(1 0 0 1 573 296 )" />
    <path d="M 0 17  L 0 5  C 0 2.19999999999999  1.43846153846157 0  3.26923076923077 0  L 81.7307692307692 0  C 83.5615384615384 0  85 2.19999999999999  85 5  L 85 17  C 85 19.8  83.5615384615384 22  81.7307692307692 22  L 37.5631616090331 22  L 3.26923076923077 22  C 1.43846153846157 22  0 19.8  0 17  Z " stroke-width="2" stroke="#797979" fill="none" transform="matrix(1 0 0 1 573 296 )" mask="url(#clip5)" />
  </g>
</svg>