<?xml version="1.0" encoding="utf-8"?>
<svg version="1.1" xmlns:xlink="http://www.w3.org/1999/xlink" width="12px" height="10px" xmlns="http://www.w3.org/2000/svg">
  <g transform="matrix(1 0 0 1 -247 -6 )">
    <path d="M 1.65401785714286 8.39192708333333  C 1.69419642857143 8.43098958333333  1.71428571428571 8.48090277777778  1.71428571428571 8.54166666666667  L 1.71428571428571 9.79166666666667  C 1.71428571428571 9.85243055555556  1.69419642857143 9.90234375  1.65401785714286 9.94140625  C 1.61383928571429 9.98046875  1.5625 10  1.5 10  L 0.214285714285714 10  C 0.151785714285714 10  0.100446428571429 9.98046875  0.0602678571428572 9.94140625  C 0.0200892857142857 9.90234375  0 9.85243055555556  0 9.79166666666667  L 0 8.54166666666667  C 0 8.48090277777778  0.0200892857142857 8.43098958333333  0.0602678571428572 8.39192708333333  C 0.100446428571429 8.35286458333333  0.151785714285714 8.33333333333333  0.214285714285714 8.33333333333333  L 1.5 8.33333333333333  C 1.5625 8.33333333333333  1.61383928571429 8.35286458333333  1.65401785714286 8.39192708333333  Z M 4.22544642857143 7.55859375  C 4.265625 7.59765625  4.28571428571429 7.64756944444445  4.28571428571429 7.70833333333333  L 4.28571428571429 9.79166666666667  C 4.28571428571429 9.85243055555556  4.265625 9.90234375  4.22544642857143 9.94140625  C 4.18526785714286 9.98046875  4.13392857142857 10  4.07142857142857 10  L 2.78571428571429 10  C 2.72321428571429 10  2.671875 9.98046875  2.63169642857143 9.94140625  C 2.59151785714286 9.90234375  2.57142857142857 9.85243055555556  2.57142857142857 9.79166666666667  L 2.57142857142857 7.70833333333333  C 2.57142857142857 7.64756944444445  2.59151785714286 7.59765625  2.63169642857143 7.55859375  C 2.671875 7.51953125  2.72321428571429 7.5  2.78571428571429 7.5  L 4.07142857142857 7.5  C 4.13392857142857 7.5  4.18526785714286 7.51953125  4.22544642857143 7.55859375  Z M 6.796875 5.89192708333333  C 6.83705357142857 5.93098958333333  6.85714285714286 5.98090277777778  6.85714285714286 6.04166666666667  L 6.85714285714286 9.79166666666667  C 6.85714285714286 9.85243055555556  6.83705357142857 9.90234375  6.796875 9.94140625  C 6.75669642857143 9.98046875  6.70535714285714 10  6.64285714285714 10  L 5.35714285714286 10  C 5.29464285714286 10  5.24330357142857 9.98046875  5.203125 9.94140625  C 5.16294642857143 9.90234375  5.14285714285714 9.85243055555556  5.14285714285714 9.79166666666667  L 5.14285714285714 6.04166666666667  C 5.14285714285714 5.98090277777778  5.16294642857143 5.93098958333333  5.203125 5.89192708333333  C 5.24330357142857 5.85286458333333  5.29464285714286 5.83333333333333  5.35714285714286 5.83333333333333  L 6.64285714285714 5.83333333333333  C 6.70535714285714 5.83333333333333  6.75669642857143 5.85286458333333  6.796875 5.89192708333333  Z M 9.36830357142857 3.39192708333333  C 9.40848214285714 3.43098958333333  9.42857142857143 3.48090277777778  9.42857142857143 3.54166666666667  L 9.42857142857143 9.79166666666667  C 9.42857142857143 9.85243055555556  9.40848214285714 9.90234375  9.36830357142857 9.94140625  C 9.328125 9.98046875  9.27678571428572 10  9.21428571428572 10  L 7.92857142857143 10  C 7.86607142857143 10  7.81473214285714 9.98046875  7.77455357142857 9.94140625  C 7.734375 9.90234375  7.71428571428572 9.85243055555556  7.71428571428572 9.79166666666667  L 7.71428571428572 3.54166666666667  C 7.71428571428572 3.48090277777778  7.734375 3.43098958333333  7.77455357142857 3.39192708333333  C 7.81473214285714 3.35286458333333  7.86607142857143 3.33333333333333  7.92857142857143 3.33333333333333  L 9.21428571428572 3.33333333333333  C 9.27678571428572 3.33333333333333  9.328125 3.35286458333333  9.36830357142857 3.39192708333333  Z M 11.9397321428571 0.05859375  C 11.9799107142857 0.09765625  12 0.147569444444443  12 0.208333333333334  L 12 9.79166666666667  C 12 9.85243055555556  11.9799107142857 9.90234375  11.9397321428571 9.94140625  C 11.8995535714286 9.98046875  11.8482142857143 10  11.7857142857143 10  L 10.5 10  C 10.4375 10  10.3861607142857 9.98046875  10.3459821428571 9.94140625  C 10.3058035714286 9.90234375  10.2857142857143 9.85243055555556  10.2857142857143 9.79166666666667  L 10.2857142857143 0.208333333333334  C 10.2857142857143 0.147569444444443  10.3058035714286 0.09765625  10.3459821428571 0.05859375  C 10.3861607142857 0.01953125  10.4375 0  10.5 0  L 11.7857142857143 0  C 11.8482142857143 0  11.8995535714286 0.01953125  11.9397321428571 0.05859375  Z " fill-rule="nonzero" fill="#000000" stroke="none" transform="matrix(1 0 0 1 247 6 )" />
  </g>
</svg>