<?xml version="1.0" encoding="utf-8"?>
<svg version="1.1" xmlns:xlink="http://www.w3.org/1999/xlink" width="13px" height="10px" xmlns="http://www.w3.org/2000/svg">
  <g transform="matrix(1 0 0 1 -227 -7 )">
    <path d="M 7.11558044806517 9.47311827956989  C 6.79344874405974 9.82437275985663  6.58825526137135 10  6.5 10  C 6.41174473862865 10  6.20655125594026 9.82437275985663  5.88441955193483 9.47311827956989  C 5.5622878479294 9.12186379928315  5.40122199592668 8.8984468339307  5.40122199592668 8.80286738351255  C 5.40122199592668 8.64994026284349  5.53912084181942 8.52090800477897  5.81491853360489 8.415770609319  C 6.09071622539036 8.31063321385902  6.31907671418873 8.25806451612903  6.5 8.25806451612903  C 6.68092328581127 8.25806451612903  6.90928377460964 8.31063321385902  7.18508146639511 8.415770609319  C 7.46087915818058 8.52090800477897  7.59877800407332 8.64994026284349  7.59877800407332 8.80286738351255  C 7.59877800407332 8.8984468339307  7.4377121520706 9.12186379928315  7.11558044806517 9.47311827956989  Z M 8.90605906313646 7.51971326164875  C 8.57289545145961 7.87813620071685  8.36659877800407 8.0573476702509  8.28716904276986 8.0573476702509  C 8.27834351663272 8.0573476702509  8.19008825526137 7.99761051373955  8.0224032586558 7.87813620071685  C 7.85471826205024 7.75866188769414  7.63077053632044 7.63918757467144  7.35056008146639 7.51971326164875  C 7.07034962661236 7.40023894862605  6.78682959945689 7.3405017921147  6.5 7.3405017921147  C 6.21317040054311 7.3405017921147  5.92965037338764 7.40023894862605  5.6494399185336 7.51971326164875  C 5.36922946367957 7.63918757467144  5.1463849287169 7.75866188769414  4.98090631364562 7.87813620071685  C 4.81542769857434 7.99761051373955  4.72606924643584 8.0573476702509  4.71283095723014 8.0573476702509  C 4.63340122199593 8.0573476702509  4.42710454854039 7.87813620071685  4.09394093686354 7.51971326164875  C 3.76077732518669 7.16129032258064  3.59419551934827 6.93906810035842  3.59419551934827 6.85304659498208  C 3.59419551934827 6.79091995221027  3.61625933469111 6.73596176821983  3.66038696537678 6.68817204301075  C 4.00458248472505 6.32019115890084  4.43703326544467 6.0310633213859  4.95773930753564 5.82078853046595  C 5.47844534962661 5.610513739546  5.99253224711473 5.50537634408602  6.5 5.50537634408602  C 7.00746775288527 5.50537634408602  7.52155465037339 5.610513739546  8.04226069246436 5.82078853046595  C 8.56296673455533 6.0310633213859  8.99541751527495 6.32019115890084  9.33961303462322 6.68817204301075  C 9.38374066530889 6.73596176821983  9.40580448065173 6.79091995221027  9.40580448065173 6.85304659498208  C 9.40580448065173 6.93906810035842  9.23922267481331 7.16129032258064  8.90605906313646 7.51971326164875  Z M 10.7031568228106 5.56989247311828  C 10.372199592668 5.92831541218638  10.1692124915139 6.10752688172043  10.0941955193483 6.10752688172043  C 10.045655125594 6.10752688172043  9.9949083503055 6.0884109916368  9.94195519348269 6.05017921146953  C 9.3418194161575 5.54838709677419  8.78581126951799 5.17921146953405  8.27393075356415 4.9426523297491  C 7.76205023761032 4.70609318996416  7.17073998642227 4.58781362007168  6.5 4.58781362007168  C 6.12491513917176 4.58781362007168  5.74872708757638 4.64038231780167  5.37143584521385 4.74551971326165  C 4.99414460285132 4.85065710872162  4.66539375424304 4.97729988052569  4.385183299389 5.12544802867384  C 4.10497284453496 5.27359617682198  3.85454854039375 5.42174432497013  3.63391038696538 5.56989247311828  C 3.413272233537 5.71804062126643  3.23896809232858 5.84468339307049  3.11099796334012 5.94982078853047  C 2.98302783435166 6.05495818399044  2.91463000678887 6.10752688172043  2.90580448065173 6.10752688172043  C 2.83078750848608 6.10752688172043  2.62780040733198 5.92831541218638  2.29684317718941 5.56989247311828  C 1.96588594704684 5.21146953405018  1.80040733197556 4.98924731182796  1.80040733197556 4.90322580645161  C 1.80040733197556 4.84587813620072  1.8224711473184 4.79330943847073  1.86659877800407 4.74551971326165  C 2.44908350305499 4.11469534050179  3.1551255940258 3.62485065710872  3.9847250509165 3.27598566308244  C 4.8143245078072 2.92712066905615  5.65274949083503 2.75268817204301  6.5 2.75268817204301  C 7.34725050916497 2.75268817204301  8.1856754921928 2.92712066905615  9.0152749490835 3.27598566308244  C 9.8448744059742 3.62485065710872  10.550916496945 4.11469534050179  11.1334012219959 4.74551971326165  C 11.1775288526816 4.79330943847073  11.1995926680244 4.84587813620072  11.1995926680244 4.90322580645161  C 11.1995926680244 4.98924731182796  11.0341140529532 5.21146953405018  10.7031568228106 5.56989247311828  Z M 12.5002545824847 3.62724014336918  C 12.1670909708079 3.98566308243728  11.9630006788866 4.16487455197133  11.887983706721 4.16487455197133  C 11.8394433129667 4.16487455197133  11.7909029192125 4.14336917562724  11.7423625254582 4.10035842293907  C 10.9524779361847 3.35005973715651  10.1328071961982 2.78494623655914  9.28335030549898 2.40501792114695  C 8.43389341479973 2.02508960573477  7.5061099796334 1.83512544802867  6.5 1.83512544802867  C 5.4938900203666 1.83512544802867  4.56610658520027 2.02508960573477  3.71664969450102 2.40501792114695  C 2.86719280380177 2.78494623655914  2.04752206381534 3.35005973715651  1.25763747454175 4.10035842293907  C 1.20909708078751 4.14336917562724  1.16055668703327 4.16487455197133  1.11201629327902 4.16487455197133  C 1.03699932111337 4.16487455197133  0.832909029192125 3.98566308243728  0.499745417515275 3.62724014336918  C 0.166581805838425 3.26881720430108  0 3.04659498207885  0 2.96057347670251  C 0 2.8984468339307  0.0220638153428378 2.84348864994026  0.0661914460285132 2.79569892473118  C 0.891378139850645 1.90681003584229  1.87321792260692 1.21863799283154  3.01171079429735 0.731182795698925  C 4.15020366598778 0.243727598566308  5.31296673455533 0  6.5 0  C 7.68703326544467 0  8.84979633401222 0.243727598566308  9.98828920570265 0.731182795698925  C 11.1267820773931 1.21863799283154  12.1086218601494 1.90681003584229  12.9338085539715 2.79569892473118  C 12.9779361846572 2.84348864994026  13 2.8984468339307  13 2.96057347670251  C 13 3.04659498207885  12.8334181941616 3.26881720430108  12.5002545824847 3.62724014336918  Z " fill-rule="nonzero" fill="#000000" stroke="none" transform="matrix(1 0 0 1 227 7 )" />
  </g>
</svg>