<?xml version="1.0" encoding="utf-8"?>
<svg version="1.1" xmlns:xlink="http://www.w3.org/1999/xlink" width="11px" height="6px" xmlns="http://www.w3.org/2000/svg">
  <g transform="matrix(1 0 0 1 -275 -9 )">
    <path d="M 7.33333333333333 4.8  L 1.22222222222222 4.8  L 1.22222222222222 1.2  L 7.33333333333333 1.2  L 7.33333333333333 4.8  Z M 10.3888888888889 0.75  L 10.3888888888889 1.5  C 10.5575810185185 1.5  10.7016059027778 1.55859375  10.8209635416667 1.67578125  C 10.9403211805556 1.79296875  11 1.934375  11 2.1  L 11 3.9  C 11 4.065625  10.9403211805556 4.20703125  10.8209635416667 4.32421875  C 10.7016059027778 4.44140625  10.5575810185185 4.5  10.3888888888889 4.5  L 10.3888888888889 5.25  C 10.3888888888889 5.45625  10.3140914351852 5.6328125  10.1644965277778 5.7796875  C 10.0149016203704 5.9265625  9.83506944444444 6  9.625 6  L 0.763888888888889 6  C 0.553819444444444 6  0.373987268518519 5.9265625  0.224392361111111 5.7796875  C 0.0747974537037037 5.6328125  0 5.45625  0 5.25  L 0 0.75  C 0 0.54375  0.0747974537037037 0.3671875  0.224392361111111 0.2203125  C 0.373987268518519 0.0734374999999992  0.553819444444444 0  0.763888888888889 0  L 9.625 0  C 9.83506944444444 0  10.0149016203704 0.0734374999999992  10.1644965277778 0.2203125  C 10.3140914351852 0.3671875  10.3888888888889 0.54375  10.3888888888889 0.75  Z M 9.77777777777778 3.9  L 10.3888888888889 3.9  L 10.3888888888889 2.1  L 9.77777777777778 2.1  L 9.77777777777778 0.75  C 9.77777777777778 0.706249999999999  9.76345486111111 0.6703125  9.73480902777778 0.6421875  C 9.70616319444444 0.6140625  9.66956018518519 0.6  9.625 0.6  L 0.763888888888889 0.6  C 0.719328703703704 0.6  0.682725694444444 0.6140625  0.654079861111111 0.6421875  C 0.625434027777778 0.6703125  0.611111111111111 0.706249999999999  0.611111111111111 0.75  L 0.611111111111111 5.25  C 0.611111111111111 5.29375  0.625434027777778 5.3296875  0.654079861111111 5.3578125  C 0.682725694444444 5.3859375  0.719328703703704 5.4  0.763888888888889 5.4  L 9.625 5.4  C 9.66956018518519 5.4  9.70616319444444 5.3859375  9.73480902777778 5.3578125  C 9.76345486111111 5.3296875  9.77777777777778 5.29375  9.77777777777778 5.25  L 9.77777777777778 3.9  Z " fill-rule="nonzero" fill="#000000" stroke="none" transform="matrix(1 0 0 1 275 9 )" />
  </g>
</svg>