<?xml version="1.0" encoding="utf-8"?>
<svg version="1.1" xmlns:xlink="http://www.w3.org/1999/xlink" width="19px" height="23px" xmlns="http://www.w3.org/2000/svg">
  <g transform="matrix(1 0 0 1 -31 -52 )">
    <path d="M 15.8333333333333 6.57142857142857  C 15.8333333333333 7.82924107142857  15.5075954861111 8.99293154761905  14.8561197916667 10.0625  C 15.2437065972222 10.1822916666667  15.6127387152778 10.3448660714286  15.9632161458333 10.5502232142857  C 16.3136935763889 10.7555803571429  16.6806640625 11.0678943452381  17.0641276041667 11.4871651785714  C 17.4475911458333 11.9064360119048  17.775390625 12.4005766369048  18.0475260416667 12.9695870535714  C 18.3196614583333 13.5385974702381  18.5464409722222 14.2744605654762  18.7278645833333 15.1771763392857  C 18.9092881944444 16.0798921130952  19 17.0917038690476  19 18.2126116071429  C 19 19.5303199404762  18.5876736111111 20.6576450892857  17.7630208333333 21.5945870535714  C 16.9383680555556 22.5315290178571  15.9446614583333 23  14.7819010416667 23  L 4.21809895833333 23  C 3.05533854166667 23  2.06163194444444 22.5315290178571  1.23697916666667 21.5945870535714  C 0.412326388888889 20.6576450892857  0 19.5303199404762  0 18.2126116071429  C 0 17.0917038690476  0.0907118055555556 16.0798921130952  0.272135416666667 15.1771763392857  C 0.453559027777778 14.2744605654762  0.680338541666667 13.5385974702381  0.952473958333333 12.9695870535714  C 1.224609375 12.4005766369048  1.55240885416667 11.9064360119048  1.93587239583333 11.4871651785714  C 2.3193359375 11.0678943452381  2.68630642361111 10.7555803571429  3.03678385416667 10.5502232142857  C 3.38726128472222 10.3448660714286  3.75629340277778 10.1822916666667  4.14388020833333 10.0625  C 3.49240451388889 8.99293154761905  3.16666666666667 7.82924107142857  3.16666666666667 6.57142857142857  C 3.16666666666667 5.68154761904762  3.33365885416667 4.83231026785714  3.66764322916667 4.02371651785714  C 4.00162760416667 3.21512276785714  4.453125 2.515625  5.02213541666667 1.92522321428571  C 5.59114583333333 1.33482142857143  6.26529947916667 0.866350446428571  7.04459635416667 0.519810267857142  C 7.82389322916667 0.173270089285713  8.64236111111111 0  9.5 0  C 10.3576388888889 0  11.1761067708333 0.173270089285713  11.9554036458333 0.519810267857142  C 12.7347005208333 0.866350446428571  13.4088541666667 1.33482142857143  13.9778645833333 1.92522321428571  C 14.546875 2.515625  14.9983723958333 3.21512276785714  15.3323567708333 4.02371651785714  C 15.6663411458333 4.83231026785714  15.8333333333333 5.68154761904762  15.8333333333333 6.57142857142857  Z M 12.8583984375 3.08677455357143  C 11.9306640625 2.12416294642857  10.8111979166667 1.64285714285714  9.5 1.64285714285714  C 8.18880208333333 1.64285714285714  7.0693359375 2.12416294642857  6.1416015625 3.08677455357143  C 5.2138671875 4.04938616071429  4.75 5.2109375  4.75 6.57142857142857  C 4.75 7.93191964285714  5.2138671875 9.09347098214286  6.1416015625 10.0560825892857  C 7.0693359375 11.0186941964286  8.18880208333333 11.5  9.5 11.5  C 10.8111979166667 11.5  11.9306640625 11.0186941964286  12.8583984375 10.0560825892857  C 13.7861328125 9.09347098214286  14.25 7.93191964285714  14.25 6.57142857142857  C 14.25 5.2109375  13.7861328125 4.04938616071429  12.8583984375 3.08677455357143  Z M 4.21809895833333 21  L 14.7819010416667 21  C 15.5075954861111 21.3571428571429  16.1281467013889 21.0512462797619  16.6435546875 20.439453125  C 17.1589626736111 19.8276599702381  17.4166666666667 19.0853794642857  17.4166666666667 18.2126116071429  C 17.4166666666667 16.1675967261905  17.0929904513889 14.5546875  16.4456380208333 13.3738839285714  C 15.7982855902778 12.1930803571429  14.8684895833333 11.5727306547619  13.65625 11.5128348214286  C 12.4605034722222 12.5995163690476  11.0750868055556 13.1428571428571  9.5 13.1428571428571  C 7.92491319444444 13.1428571428571  6.53949652777778 12.5995163690476  5.34375 11.5128348214286  C 4.13151041666667 11.5727306547619  3.20171440972222 12.1930803571429  2.55436197916667 13.3738839285714  C 1.90700954861111 14.5546875  1.58333333333333 16.1675967261905  1.58333333333333 18.2126116071429  C 1.58333333333333 19.0853794642857  1.84103732638889 19.8276599702381  2.3564453125 20.439453125  C 2.87185329861111 21.0512462797619  3.49240451388889 21.3571428571429  4.21809895833333 21  Z " fill-rule="nonzero" fill="#000000" stroke="none" transform="matrix(1 0 0 1 31 52 )" />
  </g>
</svg>