<?xml version="1.0" encoding="utf-8"?>
<svg version="1.1" xmlns:xlink="http://www.w3.org/1999/xlink" width="12px" height="12px" viewBox="121 254.5  12 12" xmlns="http://www.w3.org/2000/svg">
  <path d="M 127 254.5  C 130.36 254.5  133 257.14  133 260.5  C 133 263.86  130.36 266.5  127 266.5  C 123.64 266.5  121 263.86  121 260.5  C 121 257.14  123.64 254.5  127 254.5  Z " fill-rule="nonzero" fill="#f0f0f0" stroke="none" />
  <path d="M 127 255  C 130.08 255  132.5 257.42  132.5 260.5  C 132.5 263.58  130.08 266  127 266  C 123.92 266  121.5 263.58  121.5 260.5  C 121.5 257.42  123.92 255  127 255  Z " stroke-width="1" stroke="#797979" fill="none" />
  <path d="M 127 263.5  C 125.32 263.5  124 262.18  124 260.5  C 124 258.82  125.32 257.5  127 257.5  C 128.68 257.5  130 258.82  130 260.5  C 130 262.18  128.68 263.5  127 263.5  " fill-rule="nonzero" fill="#797979" stroke="none" />
</svg>