<?xml version="1.0" encoding="utf-8"?>
<svg version="1.1" xmlns:xlink="http://www.w3.org/1999/xlink" width="12px" height="12px" viewBox="587 254.5  12 12" xmlns="http://www.w3.org/2000/svg">
  <path d="M 593 254.5  C 596.36 254.5  599 257.14  599 260.5  C 599 263.86  596.36 266.5  593 266.5  C 589.64 266.5  587 263.86  587 260.5  C 587 257.14  589.64 254.5  593 254.5  Z " fill-rule="nonzero" fill="#ffffff" stroke="none" />
  <path d="M 593 255  C 596.08 255  598.5 257.42  598.5 260.5  C 598.5 263.58  596.08 266  593 266  C 589.92 266  587.5 263.58  587.5 260.5  C 587.5 257.42  589.92 255  593 255  Z " stroke-width="1" stroke="#797979" fill="none" />
  <path d="M 593 263.5  C 591.32 263.5  590 262.18  590 260.5  C 590 258.82  591.32 257.5  593 257.5  C 594.68 257.5  596 258.82  596 260.5  C 596 262.18  594.68 263.5  593 263.5  " fill-rule="nonzero" fill="#797979" stroke="none" />
</svg>