<?xml version="1.0" encoding="utf-8"?>
<svg version="1.1" xmlns:xlink="http://www.w3.org/1999/xlink" width="5px" height="5px" xmlns="http://www.w3.org/2000/svg">
  <g transform="matrix(1 0 0 1 -280 -323 )">
    <path d="M 282.5 323  C 283.9 323  285 324.1  285 325.5  C 285 326.9  283.9 328  282.5 328  C 281.1 328  280 326.9  280 325.5  C 280 324.1  281.1 323  282.5 323  Z " fill-rule="nonzero" fill="#d9001b" stroke="none" />
    <path d="M 282.5 323.5  C 283.62 323.5  284.5 324.38  284.5 325.5  C 284.5 326.62  283.62 327.5  282.5 327.5  C 281.38 327.5  280.5 326.62  280.5 325.5  C 280.5 324.38  281.38 323.5  282.5 323.5  Z " stroke-width="1" stroke="#d9001b" fill="none" />
  </g>
</svg>