<?xml version="1.0" encoding="utf-8"?>
<svg version="1.1" xmlns:xlink="http://www.w3.org/1999/xlink" width="32px" height="38px" xmlns="http://www.w3.org/2000/svg">
  <g transform="matrix(1 0 0 1 -54 -174 )">
    <path d="M 26.6666666666667 10.8571428571429  C 26.6666666666667 12.9352678571429  26.1180555555556 14.8578869047619  25.0208333333333 16.625  C 25.6736111111111 16.8229166666667  26.2951388888889 17.0915178571429  26.8854166666667 17.4308035714286  C 27.4756944444444 17.7700892857143  28.09375 18.2860863095238  28.7395833333333 18.9787946428571  C 29.3854166666667 19.6715029761905  29.9375 20.4879092261905  30.3958333333333 21.4280133928571  C 30.8541666666667 22.3681175595238  31.2361111111111 23.5838913690476  31.5416666666667 25.0753348214286  C 31.8472222222222 26.5667782738095  32 28.2384672619048  32 30.0904017857143  C 32 32.2674851190476  31.3055555555556 34.1300223214286  29.9166666666667 35.6780133928571  C 28.5277777777778 37.2260044642857  26.8541666666667 38  24.8958333333333 38  L 7.10416666666667 38  C 5.14583333333333 38  3.47222222222222 37.2260044642857  2.08333333333333 35.6780133928571  C 0.694444444444444 34.1300223214286  0 32.2674851190476  0 30.0904017857143  C 0 28.2384672619048  0.152777777777778 26.5667782738095  0.458333333333333 25.0753348214286  C 0.763888888888889 23.5838913690476  1.14583333333333 22.3681175595238  1.60416666666667 21.4280133928571  C 2.0625 20.4879092261905  2.61458333333333 19.6715029761905  3.26041666666667 18.9787946428571  C 3.90625 18.2860863095238  4.52430555555556 17.7700892857143  5.11458333333333 17.4308035714286  C 5.70486111111111 17.0915178571429  6.32638888888889 16.8229166666667  6.97916666666667 16.625  C 5.88194444444445 14.8578869047619  5.33333333333333 12.9352678571429  5.33333333333333 10.8571428571429  C 5.33333333333333 9.38690476190476  5.61458333333333 7.98381696428571  6.17708333333333 6.64787946428571  C 6.73958333333333 5.31194196428571  7.5 4.15625  8.45833333333333 3.18080357142857  C 9.41666666666667 2.20535714285714  10.5520833333333 1.43136160714286  11.8645833333333 0.858816964285713  C 13.1770833333333 0.28627232142857  14.5555555555556 0  16 0  C 17.4444444444444 0  18.8229166666667 0.28627232142857  20.1354166666667 0.858816964285713  C 21.4479166666667 1.43136160714286  22.5833333333333 2.20535714285714  23.5416666666667 3.18080357142857  C 24.5 4.15625  25.2604166666667 5.31194196428571  25.8229166666667 6.64787946428571  C 26.3854166666667 7.98381696428571  26.6666666666667 9.38690476190476  26.6666666666667 10.8571428571429  Z M 21.65625 5.09988839285714  C 20.09375 3.50948660714286  18.2083333333333 2.71428571428571  16 2.71428571428571  C 13.7916666666667 2.71428571428571  11.90625 3.50948660714286  10.34375 5.09988839285714  C 8.78125 6.69029017857143  8 8.609375  8 10.8571428571429  C 8 13.1049107142857  8.78125 15.0239955357143  10.34375 16.6143973214286  C 11.90625 18.2047991071429  13.7916666666667 19  16 19  C 18.2083333333333 19  20.09375 18.2047991071429  21.65625 16.6143973214286  C 23.21875 15.0239955357143  24 13.1049107142857  24 10.8571428571429  C 24 8.609375  23.21875 6.69029017857143  21.65625 5.09988839285714  Z M 7.10416666666667 35  L 24.8958333333333 35  C 26.1180555555556 35.2857142857143  27.1631944444444 34.7803199404762  28.03125 33.76953125  C 28.8993055555556 32.7587425595238  29.3333333333333 31.5323660714286  29.3333333333333 30.0904017857143  C 29.3333333333333 26.711681547619  28.7881944444444 24.046875  27.6979166666667 22.0959821428571  C 26.6076388888889 20.1450892857143  25.0416666666667 19.1201636904762  23 19.0212053571429  C 20.9861111111111 20.8165922619048  18.6527777777778 21.7142857142857  16 21.7142857142857  C 13.3472222222222 21.7142857142857  11.0138888888889 20.8165922619048  9 19.0212053571429  C 6.95833333333333 19.1201636904762  5.39236111111111 20.1450892857143  4.30208333333333 22.0959821428571  C 3.21180555555556 24.046875  2.66666666666667 26.711681547619  2.66666666666667 30.0904017857143  C 2.66666666666667 31.5323660714286  3.10069444444444 32.7587425595238  3.96875 33.76953125  C 4.83680555555556 34.7803199404762  5.88194444444445 35.2857142857143  7.10416666666667 35  Z " fill-rule="nonzero" fill="#000000" stroke="none" transform="matrix(1 0 0 1 54 174 )" />
  </g>
</svg>