<?xml version="1.0" encoding="utf-8"?>
<svg version="1.1" xmlns:xlink="http://www.w3.org/1999/xlink" width="50px" height="42px" xmlns="http://www.w3.org/2000/svg">
  <g transform="matrix(1 0 0 1 -306 -203 )">
    <path d="M 49.3815104166667 34.2234375  C 49.7938368055556 34.6390625  50 35.13125  50 35.7  L 50 39.9  C 50 40.46875  49.7938368055556 40.9609375  49.3815104166667 41.3765625  C 48.9691840277778 41.7921875  48.4809027777778 42  47.9166666666667 42  L 2.08333333333333 42  C 1.51909722222222 42  1.03081597222222 41.7921875  0.618489583333333 41.3765625  C 0.206163194444444 40.9609375  0 40.46875  0 39.9  L 0 35.7  C 0 35.13125  0.206163194444444 34.6390625  0.618489583333333 34.2234375  C 1.03081597222222 33.8078125  1.51909722222222 33.6  2.08333333333333 33  L 47.9166666666667 33  C 48.4809027777778 33.6  48.9691840277778 33.8078125  49.3815104166667 34.2234375  Z M 49.3815104166667 17.4234375  C 49.7938368055556 17.8390625  50 18.33125  50 18.9  L 50 23.1  C 50 23.66875  49.7938368055556 24.1609375  49.3815104166667 24.5765625  C 48.9691840277778 24.9921875  48.4809027777778 25.2  47.9166666666667 25  L 2.08333333333333 25  C 1.51909722222222 25.2  1.03081597222222 24.9921875  0.618489583333333 24.5765625  C 0.206163194444444 24.1609375  0 23.66875  0 23.1  L 0 18.9  C 0 18.33125  0.206163194444444 17.8390625  0.618489583333333 17.4234375  C 1.03081597222222 17.0078125  1.51909722222222 16.8  2.08333333333333 17  L 47.9166666666667 17  C 48.4809027777778 16.8  48.9691840277778 17.0078125  49.3815104166667 17.4234375  Z M 49.3815104166667 0.623437500000002  C 49.7938368055556 1.0390625  50 1.53125  50 2.1  L 50 6.3  C 50 6.86875  49.7938368055556 7.3609375  49.3815104166667 7.7765625  C 48.9691840277778 8.1921875  48.4809027777778 8.4  47.9166666666667 9  L 2.08333333333333 9  C 1.51909722222222 8.4  1.03081597222222 8.1921875  0.618489583333333 7.7765625  C 0.206163194444444 7.3609375  0 6.86875  0 6.3  L 0 2.1  C 0 1.53125  0.206163194444444 1.0390625  0.618489583333333 0.623437500000002  C 1.03081597222222 0.207812499999998  1.51909722222222 0  2.08333333333333 0  L 47.9166666666667 0  C 48.4809027777778 0  48.9691840277778 0.207812499999998  49.3815104166667 0.623437500000002  Z " fill-rule="nonzero" fill="#000000" stroke="none" transform="matrix(1 0 0 1 306 203 )" />
  </g>
</svg>