<?xml version="1.0" encoding="utf-8"?>
<svg version="1.1" xmlns:xlink="http://www.w3.org/1999/xlink" width="40px" height="40px" xmlns="http://www.w3.org/2000/svg">
  <defs>
    <filter x="1526px" y="45px" width="40px" height="40px" filterUnits="userSpaceOnUse" id="filter3">
      <feOffset dx="1" dy="1" in="SourceAlpha" result="shadowOffsetInner" />
      <feGaussianBlur stdDeviation="2.5" in="shadowOffsetInner" result="shadowGaussian" />
      <feComposite in2="shadowGaussian" operator="atop" in="SourceAlpha" result="shadowComposite" />
      <feColorMatrix type="matrix" values="0 0 0 0 0  0 0 0 0 0  0 0 0 0 0  0 0 0 0.698039215686274 0  " in="shadowComposite" />
    </filter>
    <g id="widget4">
      <path d="M 1545 49  C 1553.4 49  1560 55.6  1560 64  C 1560 72.4  1553.4 79  1545 79  C 1536.6 79  1530 72.4  1530 64  C 1530 55.6  1536.6 49  1545 49  Z " fill-rule="nonzero" fill="#009dd9" stroke="none" />
      <path d="M 1545 49.5  C 1553.12 49.5  1559.5 55.88  1559.5 64  C 1559.5 72.12  1553.12 78.5  1545 78.5  C 1536.88 78.5  1530.5 72.12  1530.5 64  C 1530.5 55.88  1536.88 49.5  1545 49.5  Z " stroke-width="1" stroke="#ffffff" fill="none" />
    </g>
  </defs>
  <g transform="matrix(1 0 0 1 -1526 -45 )">
    <use xlink:href="#widget4" filter="url(#filter3)" />
    <use xlink:href="#widget4" />
  </g>
</svg>