<?xml version="1.0" encoding="utf-8"?>
<svg version="1.1" xmlns:xlink="http://www.w3.org/1999/xlink" width="30px" height="8px" xmlns="http://www.w3.org/2000/svg">
  <g transform="matrix(1 0 0 1 -188 -511 )">
    <path d="M 29.2131696428571 0.734375  C 29.7377232142857 1.22395833333333  30 1.8125  30 2.5  L 30 5.5  C 30 6.1875  29.7377232142857 6.77604166666667  29.2131696428571 7.265625  C 28.6886160714286 7.75520833333333  28.0580357142857 8  27.3214285714286 8  L 2.67857142857143 8  C 1.94196428571429 8  1.31138392857143 7.75520833333333  0.786830357142857 7.265625  C 0.262276785714286 6.77604166666667  0 6.1875  0 5.5  L 0 2.5  C 0 1.8125  0.262276785714286 1.22395833333333  0.786830357142857 0.734375  C 1.31138392857143 0.244791666666668  1.94196428571429 0  2.67857142857143 0  L 27.3214285714286 0  C 28.0580357142857 0  28.6886160714286 0.244791666666668  29.2131696428571 0.734375  Z " fill-rule="nonzero" fill="#000000" stroke="none" transform="matrix(1 0 0 1 188 511 )" />
  </g>
</svg>