<?xml version="1.0" encoding="utf-8"?>
<svg version="1.1" xmlns:xlink="http://www.w3.org/1999/xlink" width="12px" height="12px" viewBox="494 246.5  12 12" xmlns="http://www.w3.org/2000/svg">
  <path d="M 500 246.5  C 503.36 246.5  506 249.14  506 252.5  C 506 255.86  503.36 258.5  500 258.5  C 496.64 258.5  494 255.86  494 252.5  C 494 249.14  496.64 246.5  500 246.5  Z " fill-rule="nonzero" fill="#ffffff" stroke="none" />
  <path d="M 500 247  C 503.08 247  505.5 249.42  505.5 252.5  C 505.5 255.58  503.08 258  500 258  C 496.92 258  494.5 255.58  494.5 252.5  C 494.5 249.42  496.92 247  500 247  Z " stroke-width="1" stroke="#797979" fill="none" />
  <path d="M 500 255.5  C 498.32 255.5  497 254.18  497 252.5  C 497 250.82  498.32 249.5  500 249.5  C 501.68 249.5  503 250.82  503 252.5  C 503 254.18  501.68 255.5  500 255.5  " fill-rule="nonzero" fill="#797979" stroke="none" />
</svg>