<?xml version="1.0" encoding="utf-8"?>
<svg version="1.1" xmlns:xlink="http://www.w3.org/1999/xlink" width="40px" height="40px" xmlns="http://www.w3.org/2000/svg">
  <g transform="matrix(1 0 0 1 -18 -25 )">
    <path d="M 38 25  C 49.2 25  58 33.8  58 45  C 58 56.2  49.2 65  38 65  C 26.8 65  18 56.2  18 45  C 18 33.8  26.8 25  38 25  Z " fill-rule="nonzero" fill="#ffffff" stroke="none" />
    <path d="M 38 25.5  C 48.92 25.5  57.5 34.08  57.5 45  C 57.5 55.92  48.92 64.5  38 64.5  C 27.08 64.5  18.5 55.92  18.5 45  C 18.5 34.08  27.08 25.5  38 25.5  Z " stroke-width="1" stroke="#797979" fill="none" />
  </g>
</svg>