<?xml version="1.0" encoding="utf-8"?>
<svg version="1.1" xmlns:xlink="http://www.w3.org/1999/xlink" width="18px" height="18px" xmlns="http://www.w3.org/2000/svg">
  <g transform="matrix(1 0 0 1 -266 -7 )">
    <path d="M 12.5758928571429 15.8353794642857  C 13.6808035714286 15.2494419642857  14.5881696428571 14.4542410714286  15.2979910714286 13.4497767857143  C 15.1506696428571 12.4118303571429  14.8577008928571 11.5496651785714  14.4190848214286 10.86328125  C 13.98046875 10.1768973214286  13.3627232142857 9.78013392857143  12.5658482142857 9.67299107142857  C 12.1171875 10.1685267857143  11.5831473214286 10.5552455357143  10.9637276785714 10.8331473214286  C 10.3443080357143 11.1110491071429  9.68973214285714 11.25  9 11.25  C 8.31026785714286 11.25  7.65569196428572 11.1110491071429  7.03627232142857 10.8331473214286  C 6.41685267857143 10.5552455357143  5.8828125 10.1685267857143  5.43415178571429 9.67299107142857  C 4.63727678571429 9.78013392857143  4.01953125 10.1768973214286  3.58091517857143 10.86328125  C 3.14229910714286 11.5496651785714  2.84933035714286 12.4118303571429  2.70200892857143 13.4497767857143  C 3.41183035714286 14.4542410714286  4.31919642857143 15.2494419642857  5.42410714285714 15.8353794642857  C 6.52901785714286 16.4213169642857  7.72098214285714 16.7142857142857  9 16.7142857142857  C 10.2790178571429 16.7142857142857  11.4709821428571 16.4213169642857  12.5758928571429 15.8353794642857  Z M 11.7271205357143 9.15569196428572  C 12.48046875 8.40234375  12.8571428571429 7.49330357142857  12.8571428571429 6.42857142857143  C 12.8571428571429 5.36383928571428  12.48046875 4.45479910714286  11.7271205357143 3.70145089285714  C 10.9737723214286 2.94810267857143  10.0647321428571 2.57142857142857  9 2.57142857142857  C 7.93526785714286 2.57142857142857  7.02622767857143 2.94810267857143  6.27287946428571 3.70145089285714  C 5.51953125 4.45479910714286  5.14285714285714 5.36383928571428  5.14285714285714 6.42857142857143  C 5.14285714285714 7.49330357142857  5.51953125 8.40234375  6.27287946428571 9.15569196428572  C 7.02622767857143 9.90904017857143  7.93526785714286 10.2857142857143  9 10.2857142857143  C 10.0647321428571 10.2857142857143  10.9737723214286 9.90904017857143  11.7271205357143 9.15569196428572  Z M 17.2868303571429 5.50446428571428  C 17.7622767857143 6.61607142857143  18 7.78125  18 9  C 18 10.21875  17.7622767857143 11.3822544642857  17.2868303571429 12.4905133928571  C 16.8113839285714 13.5987723214286  16.1735491071429 14.5563616071429  15.3733258928571 15.36328125  C 14.5731026785714 16.1702008928571  13.6171875 16.8113839285714  12.5055803571429 17.2868303571429  C 11.3939732142857 17.7622767857143  10.2254464285714 18  9 18  C 7.78125 18  6.61607142857143 17.7622767857143  5.50446428571429 17.2868303571429  C 4.39285714285714 16.8113839285714  3.43526785714286 16.171875  2.63169642857143 15.3683035714286  C 1.828125 14.5647321428571  1.18861607142857 13.6071428571429  0.713169642857143 12.4955357142857  C 0.237723214285714 11.3839285714286  0 10.21875  0 9  C 0 7.78125  0.237723214285714 6.61607142857143  0.713169642857143 5.50446428571428  C 1.18861607142857 4.39285714285714  1.828125 3.43526785714286  2.63169642857143 2.63169642857143  C 3.43526785714286 1.828125  4.39285714285714 1.18861607142857  5.50446428571429 0.713169642857143  C 6.61607142857143 0.237723214285714  7.78125 0  9 0  C 10.21875 0  11.3839285714286 0.237723214285714  12.4955357142857 0.713169642857143  C 13.6071428571429 1.18861607142857  14.5647321428571 1.828125  15.3683035714286 2.63169642857143  C 16.171875 3.43526785714286  16.8113839285714 4.39285714285714  17.2868303571429 5.50446428571428  Z " fill-rule="nonzero" fill="#0192df" stroke="none" transform="matrix(1 0 0 1 266 7 )" />
  </g>
</svg>