<?xml version="1.0" encoding="utf-8"?>
<svg version="1.1" xmlns:xlink="http://www.w3.org/1999/xlink" width="18px" height="18px" xmlns="http://www.w3.org/2000/svg">
  <g transform="matrix(1 0 0 1 -114 -7 )">
    <path d="M 5.50446428571429 0.713169642857143  C 6.61607142857143 0.237723214285714  7.78125 0  9 0  C 10.21875 0  11.3839285714286 0.237723214285714  12.4955357142857 0.713169642857143  C 13.6071428571429 1.18861607142857  14.5647321428571 1.828125  15.3683035714286 2.63169642857143  C 16.171875 3.43526785714286  16.8113839285714 4.39285714285714  17.2868303571429 5.50446428571428  C 17.7622767857143 6.61607142857143  18 7.78125  18 9  C 18 10.21875  17.7622767857143 11.3839285714286  17.2868303571429 12.4955357142857  C 16.8113839285714 13.6071428571429  16.171875 14.5647321428571  15.3683035714286 15.3683035714286  C 14.5647321428571 16.171875  13.6071428571429 16.8113839285714  12.4955357142857 17.2868303571429  C 11.3839285714286 17.7622767857143  10.21875 18  9 18  C 7.78125 18  6.61607142857143 17.7622767857143  5.50446428571429 17.2868303571429  C 4.39285714285714 16.8113839285714  3.43526785714286 16.171875  2.63169642857143 15.3683035714286  C 1.828125 14.5647321428571  1.18861607142857 13.6071428571429  0.713169642857143 12.4955357142857  C 0.237723214285714 11.3839285714286  0 10.21875  0 9  C 0 7.78125  0.237723214285714 6.61607142857143  0.713169642857143 5.50446428571428  C 1.18861607142857 4.39285714285714  1.828125 3.43526785714286  2.63169642857143 2.63169642857143  C 3.43526785714286 1.828125  4.39285714285714 1.18861607142857  5.50446428571429 0.713169642857143  Z M 12.6261160714286 2.18973214285714  C 11.4810267857143 1.58705357142857  10.2723214285714 1.28571428571429  9 1.28571428571429  C 7.72767857142857 1.28571428571429  6.51897321428571 1.58705357142857  5.37388392857143 2.18973214285714  L 7.32254464285714 4.13839285714286  C 7.87165178571429 3.95089285714286  8.43080357142857 3.85714285714286  9 3.85714285714286  C 9.56919642857143 3.85714285714286  10.1283482142857 3.95089285714286  10.6774553571429 4.13839285714286  L 12.6261160714286 2.18973214285714  Z M 1.28571428571429 9  C 1.28571428571429 10.2723214285714  1.58705357142857 11.4810267857143  2.18973214285714 12.6261160714286  L 4.13839285714286 10.6774553571429  C 3.95089285714286 10.1283482142857  3.85714285714286 9.56919642857143  3.85714285714286 9  C 3.85714285714286 8.43080357142857  3.95089285714286 7.87165178571428  4.13839285714286 7.32254464285714  L 2.18973214285714 5.37388392857143  C 1.58705357142857 6.51897321428572  1.28571428571429 7.72767857142857  1.28571428571429 9  Z M 5.37388392857143 15.8102678571429  C 6.51897321428571 16.4129464285714  7.72767857142857 16.7142857142857  9 16.7142857142857  C 10.2723214285714 16.7142857142857  11.4810267857143 16.4129464285714  12.6261160714286 15.8102678571429  L 10.6774553571429 13.8616071428571  C 10.1283482142857 14.0491071428571  9.56919642857143 14.1428571428571  9 14.1428571428571  C 8.43080357142857 14.1428571428571  7.87165178571429 14.0491071428571  7.32254464285714 13.8616071428571  L 5.37388392857143 15.8102678571429  Z M 6.27287946428571 11.7271205357143  C 7.02622767857143 12.48046875  7.93526785714286 12.8571428571429  9 12.8571428571429  C 10.0647321428571 12.8571428571429  10.9737723214286 12.48046875  11.7271205357143 11.7271205357143  C 12.48046875 10.9737723214286  12.8571428571429 10.0647321428571  12.8571428571429 9  C 12.8571428571429 7.93526785714286  12.48046875 7.02622767857143  11.7271205357143 6.27287946428572  C 10.9737723214286 5.51953125  10.0647321428571 5.14285714285714  9 5.14285714285714  C 7.93526785714286 5.14285714285714  7.02622767857143 5.51953125  6.27287946428571 6.27287946428572  C 5.51953125 7.02622767857143  5.14285714285714 7.93526785714286  5.14285714285714 9  C 5.14285714285714 10.0647321428571  5.51953125 10.9737723214286  6.27287946428571 11.7271205357143  Z M 14.1428571428571 9  C 14.1428571428571 9.56919642857143  14.0491071428571 10.1283482142857  13.8616071428571 10.6774553571429  L 15.8102678571429 12.6261160714286  C 16.4129464285714 11.4810267857143  16.7142857142857 10.2723214285714  16.7142857142857 9  C 16.7142857142857 7.72767857142857  16.4129464285714 6.51897321428572  15.8102678571429 5.37388392857143  L 13.8616071428571 7.32254464285714  C 14.0491071428571 7.87165178571428  14.1428571428571 8.43080357142857  14.1428571428571 9  Z " fill-rule="nonzero" fill="#737373" stroke="none" transform="matrix(1 0 0 1 114 7 )" />
  </g>
</svg>