<?xml version="1.0" encoding="utf-8"?>
<svg version="1.1" xmlns:xlink="http://www.w3.org/1999/xlink" width="18px" height="14px" xmlns="http://www.w3.org/2000/svg">
  <g transform="matrix(1 0 0 1 -35 -10 )">
    <path d="M 11.912109375 9.88203125  C 12.095703125 10.0533854166667  12.1875 10.259375  12.1875 10.5  C 12.1875 10.740625  12.095703125 10.9466145833333  11.912109375 11.11796875  C 11.728515625 11.2893229166667  11.5078125 11.375  11.25 11.375  C 10.9921875 11.375  10.771484375 11.2893229166667  10.587890625 11.11796875  C 10.404296875 10.9466145833333  10.3125 10.740625  10.3125 10.5  C 10.3125 10.259375  10.404296875 10.0533854166667  10.587890625 9.88203125  C 10.771484375 9.71067708333333  10.9921875 9.625  11.25 9.625  C 11.5078125 9.625  11.728515625 9.71067708333333  11.912109375 9.88203125  Z M 14.912109375 9.88203125  C 15.095703125 10.0533854166667  15.1875 10.259375  15.1875 10.5  C 15.1875 10.740625  15.095703125 10.9466145833333  14.912109375 11.11796875  C 14.728515625 11.2893229166667  14.5078125 11.375  14.25 11.375  C 13.9921875 11.375  13.771484375 11.2893229166667  13.587890625 11.11796875  C 13.404296875 10.9466145833333  13.3125 10.740625  13.3125 10.5  C 13.3125 10.259375  13.404296875 10.0533854166667  13.587890625 9.88203125  C 13.771484375 9.71067708333333  13.9921875 9.625  14.25 9.625  C 14.5078125 9.625  14.728515625 9.71067708333333  14.912109375 9.88203125  Z M 16.388671875 12.49609375  C 16.462890625 12.4268229166667  16.5 12.3447916666667  16.5 12.25  L 16.5 8.75  C 16.5 8.65520833333333  16.462890625 8.57317708333333  16.388671875 8.50390625  C 16.314453125 8.43463541666667  16.2265625 8.4  16.125 8.4  L 1.875 8.4  C 1.7734375 8.4  1.685546875 8.43463541666667  1.611328125 8.50390625  C 1.537109375 8.57317708333333  1.5 8.65520833333333  1.5 8.75  L 1.5 12.25  C 1.5 12.3447916666667  1.537109375 12.4268229166667  1.611328125 12.49609375  C 1.685546875 12.5653645833333  1.7734375 12.6  1.875 12.6  L 16.125 12.6  C 16.2265625 12.6  16.314453125 12.5653645833333  16.388671875 12.49609375  Z M 3.92578125 1.728125  L 2.0859375 7  L 15.9140625 7  L 14.07421875 1.728125  C 14.04296875 1.63333333333333  13.98046875 1.55494791666667  13.88671875 1.49296875  C 13.79296875 1.43098958333333  13.69140625 1.4  13.58203125 1.4  L 4.41796875 1.4  C 4.30859375 1.4  4.20703125 1.43098958333333  4.11328125 1.49296875  C 4.01953125 1.55494791666667  3.95703125 1.63333333333333  3.92578125 1.728125  Z M 17.8125 7.9296875  C 17.9375 8.29427083333333  18 8.56770833333333  18 8.75  L 18 12.25  C 18 12.73125  17.81640625 13.1432291666667  17.44921875 13.4859375  C 17.08203125 13.8286458333333  16.640625 14  16.125 14  L 1.875 14  C 1.359375 14  0.91796875 13.8286458333333  0.55078125 13.4859375  C 0.18359375 13.1432291666667  0 12.73125  0 12.25  L 0 8.75  C 0 8.56770833333333  0.0625 8.29427083333333  0.1875 7.9296875  L 2.49609375 1.3015625  C 2.62890625 0.915104166666664  2.875 0.6015625  3.234375 0.3609375  C 3.59375 0.120312499999999  3.98828125 0  4.41796875 0  L 13.58203125 0  C 14.01171875 0  14.40625 0.120312499999999  14.765625 0.3609375  C 15.125 0.6015625  15.37109375 0.915104166666664  15.50390625 1.3015625  L 17.8125 7.9296875  Z " fill-rule="nonzero" fill="#737373" stroke="none" transform="matrix(1 0 0 1 35 10 )" />
  </g>
</svg>